<svg xmlns="http://www.w3.org/2000/svg" width="225.765" height="225.765" viewBox="0 0 225.765 225.765"><g transform="translate(0 0.001)"><path d="M222,135.459H200.039l-20.346-6.772-6.607-16.526V99.713A16.892,16.892,0,0,0,158.01,82.969c0-.516.026-1.033.026-1.547V26.339a3.762,3.762,0,0,0-2.682-3.6L80.1.158a3.762,3.762,0,0,0-2.161,0L2.682,22.734A3.764,3.764,0,0,0,0,26.339V81.422c0,1.745.118,3.469.18,5.2.1,2.541.237,5.065.463,7.575.039.428.09.83.132,1.253A138.986,138.986,0,0,0,77.336,206.574a3.763,3.763,0,0,0,3.364,0,140.82,140.82,0,0,0,16.262-9.58,15.168,15.168,0,0,0,4.391,4.049,15.05,15.05,0,0,0,11.529,24.721h63.967a3.772,3.772,0,0,0,2.089-.632l21.616-14.419H222a3.763,3.763,0,0,0,3.763-3.763V139.221A3.763,3.763,0,0,0,222,135.459Zm-81.438-18.487,4.387,10.961H123.09a97.561,97.561,0,0,0,12.343-46.862L150.51,76.55v4.872c0,.8-.026,1.606-.04,2.412a16.906,16.906,0,0,0-11.248,15.878v10.269a18.781,18.781,0,0,0,1.343,6.991ZM86.543,142.984a14.978,14.978,0,0,0,4.139,10.322c-1.4,1.016-2.765,2.069-4.207,3.009l-7.458,4.771L71.575,156.3a89.966,89.966,0,0,1-36.088-45.247l92.338-27.7a90.022,90.022,0,0,1-13.51,44.578H101.594a15.052,15.052,0,0,0-15.051,15.051ZM9.569,104.368c-.029-.189-.064-.377-.094-.559l14.954-4.474c.443,2.258.981,4.516,1.584,6.721l-15.169,4.553c-.5-2.159-.906-4.218-1.275-6.241ZM7.834,89.253l14.882-4.466c.1,2.359.277,4.7.549,7.028L8.417,96.269c-.037-.338-.066-.672-.1-1.012-.191-1.94-.366-3.91-.478-6Zm120.1-43.889L30.1,74.713V47.806L79.146,30.291l48.787,13.936Zm0,7.856v7.195L30.615,89.609q-.356-3.506-.445-7.059ZM150.51,61.5v7.193l-15.051,4.516V66.013Zm0-7.858-15.051,4.516V50.962l15.051-4.514ZM31.667,97.149,92.895,78.784l35.039-10.513v7.195L33.218,103.881c-.6-2.219-1.126-4.459-1.551-6.732ZM7.526,29.139,79.018,7.69,150.51,29.139V38.59l-15.051,4.516V41.39a3.76,3.76,0,0,0-2.728-3.616L80.052,22.723a3.723,3.723,0,0,0-2.3.072L25.075,41.608a3.762,3.762,0,0,0-2.5,3.544V76.971L7.526,81.487ZM79.018,198.966a131.547,131.547,0,0,1-66.427-81.043l15.679-4.7A97.428,97.428,0,0,0,67.5,162.634l9.479,6.092a3.764,3.764,0,0,0,4.071,0l9.479-6.092.1-.064A14.875,14.875,0,0,0,97.6,178.456,14.522,14.522,0,0,0,94.174,189.7a132.437,132.437,0,0,1-15.156,9.264Zm96.7,19.273H112.883a7.5,7.5,0,0,1-.625-14.972,3.841,3.841,0,0,0,3.443-3.989,3.762,3.762,0,0,0-3.763-3.616H109.12a7.525,7.525,0,1,1,0-15.051,3.763,3.763,0,1,0,0-7.525h-3.763a7.525,7.525,0,1,1,0-15.051,3.763,3.763,0,1,0,0-7.525h-3.763a7.525,7.525,0,1,1,0-15.051H150.51a3.765,3.765,0,0,0,3.5-5.163l-6.451-16.118a11.2,11.2,0,0,1-.808-4.2V99.712a9.407,9.407,0,1,1,18.814,0v13.17a3.844,3.844,0,0,0,.266,1.4l7.525,18.814a3.8,3.8,0,0,0,2.308,2.172l20,6.667v63Zm42.518-15.051H203.189v-60.2H218.24Zm0,0"/><path d="M415.168,102.719l-5.144,5.5a56.229,56.229,0,0,1,4.836,5.132l5.787-4.812a64.007,64.007,0,0,0-5.479-5.815Zm0,0" transform="translate(-217.172 -54.406)"/><path d="M455.377,197.055q0-2.213-.151-4.384l-7.507.509q.13,1.918.132,3.875,0,1.6-.09,3.177l7.525.432q.091-1.794.09-3.608Zm0,0" transform="translate(-237.137 -102.05)"/><path d="M396.193,87.083a63.89,63.89,0,0,0-6.747-4.29l-3.63,6.588a56.7,56.7,0,0,1,5.949,3.763Zm0,0" transform="translate(-204.35 -43.852)"/><path d="M451.547,225l-7.406-1.347a55.6,55.6,0,0,1-1.692,6.837l7.171,2.258A63.4,63.4,0,0,0,451.547,225Zm0,0" transform="translate(-234.346 -118.457)"/><path d="M367.478,72.748a63.107,63.107,0,0,0-7.6-2.475l-1.881,7.288a56.554,56.554,0,0,1,6.706,2.183Zm0,0" transform="translate(-189.613 -37.221)"/><path d="M433,255.909l6.585,3.649c.753-1.38,1.5-2.794,2.148-4.244l-6.833-3.145q-.865,1.907-1.9,3.741Zm0,0" transform="translate(-229.341 -133.563)"/><path d="M429.16,132.842A57.266,57.266,0,0,1,432.577,139l6.794-3.228a63.568,63.568,0,0,0-3.875-6.984Zm0,0" transform="translate(-227.307 -68.212)"/><path d="M442,161.739a56.6,56.6,0,0,1,1.777,6.814l7.386-1.433a63.151,63.151,0,0,0-2.017-7.737Zm0,0" transform="translate(-234.108 -84.419)"/><path d="M358.37,144.1a23.907,23.907,0,0,1,15.1,22.3H381a31.4,31.4,0,0,0-19.833-29.294l-1.343-.536-2.8,6.984Zm0,0" transform="translate(-189.1 -72.34)"/></g></svg>