<svg xmlns="http://www.w3.org/2000/svg" width="235.192" height="225.765" viewBox="0 0 235.192 225.765"><g transform="translate(0 -10.262)"><g transform="translate(0 10.262)"><path d="M234.739,134.008a92.716,92.716,0,0,0-72.1-81.3V41.036a15.618,15.618,0,0,0-3.77-30.774H125.8a15.618,15.618,0,0,0-3.77,30.774v11.7A92.237,92.237,0,0,0,76.79,77.624a93.236,93.236,0,0,0-7.8,8.852c-.115-.009-.231-.017-.348-.017H35.907a4.594,4.594,0,1,0,0,9.187H62.74A92.088,92.088,0,0,0,54.589,113.3h-50a4.594,4.594,0,0,0,0,9.187h47.4a93.4,93.4,0,0,0-2.28,17.657H29.4a4.594,4.594,0,1,0,0,9.187H49.86a93.263,93.263,0,0,0,2.868,17.657H22.968a4.594,4.594,0,1,0,0,9.187H55.66a92.78,92.78,0,0,0,77.572,59.4q4.552.449,9.1.448a93.015,93.015,0,0,0,50.64-14.967,4.594,4.594,0,1,0-5.014-7.7,83.6,83.6,0,1,1,24.624-24.655,4.593,4.593,0,1,0,7.7,5A93.088,93.088,0,0,0,234.739,134.008ZM119.366,25.881A6.438,6.438,0,0,1,125.8,19.45h33.074a6.431,6.431,0,1,1,0,12.862H125.8A6.438,6.438,0,0,1,119.366,25.881Zm11.848,25.28V41.5h22.239v9.645A93.6,93.6,0,0,0,131.214,51.161Z" transform="translate(0 -10.262)"/><path d="M440.364,425.5a4.6,4.6,0,1,0,3.248,1.346A4.618,4.618,0,0,0,440.364,425.5Z" transform="translate(-235.592 -234.753)"/><path d="M226.133,144.609a71.261,71.261,0,1,0,71.261,71.261A71.342,71.342,0,0,0,226.133,144.609Zm0,133.335a62.074,62.074,0,1,1,62.074-62.074A62.144,62.144,0,0,1,226.133,277.944Z" transform="translate(-83.729 -82.894)"/><path d="M310.424,220.757l-22.752,22.752a14.238,14.238,0,0,0-12.611,0l-10.183-10.183a4.594,4.594,0,0,0-6.5,6.5L268.564,250a14.274,14.274,0,1,0,25.6,0l22.085-22.085h0l.667-.667a4.594,4.594,0,0,0-6.5-6.5ZM281.367,261.4a5.087,5.087,0,1,1,5.087-5.087A5.093,5.093,0,0,1,281.367,261.4Z" transform="translate(-138.962 -123.335)"/><path d="M406.5,289.86h-4.256a4.594,4.594,0,1,0,0,9.187H406.5a4.594,4.594,0,1,0,0-9.187Z" transform="translate(-214.985 -161.422)"/><path d="M201.931,289.616h-4.256a4.594,4.594,0,0,0,0,9.187h4.256a4.594,4.594,0,1,0,0-9.187Z" transform="translate(-104.387 -161.29)"/><path d="M304.717,196.262a4.594,4.594,0,0,0,4.594-4.594v-4.256a4.594,4.594,0,1,0-9.187,0v4.256A4.594,4.594,0,0,0,304.717,196.262Z" transform="translate(-162.256 -103.552)"/><path d="M304.473,387.393a4.594,4.594,0,0,0-4.594,4.594v4.256a4.594,4.594,0,1,0,9.187,0v-4.256A4.594,4.594,0,0,0,304.473,387.393Z" transform="translate(-162.125 -214.152)"/><path d="M4.594,351.44a4.594,4.594,0,1,0,3.247,7.841,4.594,4.594,0,0,0-3.247-7.841Z" transform="translate(0 -194.714)"/></g></g></svg>